<?xml version="1.0" ?><svg viewBox="0 0 64 64" xmlns="http://www.w3.org/2000/svg"><title/><g id="Sunny"><path d="M38.7744,19.5518a12.1579,12.1579,0,0,0-11.3413,7.6733,1,1,0,0,0,.7715,1.3594,12.0286,12.0286,0,0,1,9.0879,6.9443,1,1,0,0,0,1.1069.5679,9.3251,9.3251,0,0,1,8.7793,2.8462,1.0007,1.0007,0,0,0,.7407.3281c.02,0,.0406-.0005.0611-.002a1.0007,1.0007,0,0,0,.7563-.4218,12.2235,12.2235,0,0,0-9.9624-19.2954Z" style="fill:#ffd36b"/><path d="M51.5659,44.4351A11.2818,11.2818,0,0,0,38.7754,34.0073a14.071,14.071,0,0,0-25.7339,1.7656A7.5344,7.5344,0,0,0,5.72,44.1313,8.5348,8.5348,0,0,0,1,51.7227a8.4075,8.4075,0,0,0,1.1431,4.24.9991.9991,0,0,0,.8632.4956H55.0127a1.0008,1.0008,0,0,0,.8169-.4228,7.4345,7.4345,0,0,0,1.3638-4.3125A7.5632,7.5632,0,0,0,51.5659,44.4351Z" style="fill:#9cd5f2"/><path d="M38.7744,16.75a1,1,0,0,0,1-1V8.542a1,1,0,0,0-2,0V15.75A1,1,0,0,0,38.7744,16.75Z" style="fill:#776d8a"/><path d="M26.7407,21.1461a.9941.9941,0,0,0,1.4141,0,1.0135,1.0135,0,0,0,0-1.4255l-3.398-3.4253a.9941.9941,0,0,0-1.414,0,1.0134,1.0134,0,0,0,0,1.4255Z" style="fill:#776d8a"/><path d="M62,30.7676H54.792a1,1,0,0,0,0,2H62a1,1,0,0,0,0-2Z" style="fill:#776d8a"/><path d="M50.1006,21.4414a.9964.9964,0,0,0,.707-.293l3.398-3.3979a1,1,0,0,0-1.4141-1.4141l-3.3979,3.398a1,1,0,0,0,.707,1.707Z" style="fill:#776d8a"/><path d="M51.5659,44.4351A11.2315,11.2315,0,0,0,49.16,38.1969,12.2136,12.2136,0,1,0,27.7454,26.5226a14.1211,14.1211,0,0,0-14.7039,9.25A7.5344,7.5344,0,0,0,5.72,44.1313,8.5348,8.5348,0,0,0,1,51.7227a8.4075,8.4075,0,0,0,1.1431,4.24.9991.9991,0,0,0,.8632.4956H55.0127a1.0008,1.0008,0,0,0,.8169-.4228,7.4345,7.4345,0,0,0,1.3638-4.3125A7.5632,7.5632,0,0,0,51.5659,44.4351ZM38.7744,21.5518A10.2205,10.2205,0,0,1,47.731,36.687c-.01-.0084-.02-.0154-.03-.0238-.044-.0381-.0917-.0711-.1362-.1085q-.4023-.3382-.833-.6353c-.1065-.0738-.2149-.1435-.3239-.2136q-.3765-.2421-.77-.4523c-.1019-.0546-.2014-.1126-.3049-.164a11.3,11.3,0,0,0-1.1018-.48c-.0649-.024-.132-.0415-.1973-.0644q-.4854-.17-.9857-.2948c-.1131-.0284-.2266-.0536-.3408-.0784q-.4831-.1053-.9757-.1678c-.0858-.0109-.17-.0262-.2567-.0351a11.2206,11.2206,0,0,0-1.1617-.0658c-.0247,0-.05.0049-.075.0051a11.4073,11.4073,0,0,0-1.4626.0989,14.1748,14.1748,0,0,0-.811-1.3593c-.0961-.1431-.2053-.2743-.3062-.4133-.2066-.2847-.4147-.5675-.6406-.8344-.1315-.1554-.2736-.299-.4113-.4482-.215-.2326-.4313-.4628-.6607-.68-.1558-.1472-.3186-.2849-.4808-.4247-.2306-.1989-.4642-.3928-.7072-.5761-.1743-.1314-.3523-.2562-.5326-.3793q-.3733-.2553-.762-.4857c-.1882-.1114-.3771-.22-.5705-.3222-.27-.143-.545-.2736-.8241-.399-.1967-.0884-.3919-.1775-.593-.257-.2949-.1163-.5967-.2157-.9005-.3123-.1966-.0626-.39-.1307-.59-.1847-.0614-.0166-.12-.041-.1814-.0568A10.1621,10.1621,0,0,1,38.7744,21.5518ZM54.4668,54.458H3.6089A6.4334,6.4334,0,0,1,3,51.7227,6.5218,6.5218,0,0,1,7.1855,45.67a1,1,0,0,0,.6216-1.1426,5.8765,5.8765,0,0,1-.1328-1.2143,5.5485,5.5485,0,0,1,5.542-5.542,4.2768,4.2768,0,0,1,.439.0234,1.0019,1.0019,0,0,0,1.0625-.7119,12.0712,12.0712,0,0,1,22.5747-1.5537,1,1,0,0,0,1.1069.5679,9.6891,9.6891,0,0,1,1.2366-.166,9.3714,9.3714,0,0,1,3.9911.6079,9.2141,9.2141,0,0,1,2.6864,1.5672c.1757.1491.3342.32.4992.483.1214.12.2518.228.367.355A9.2993,9.2993,0,0,1,49.59,45.2583a1,1,0,0,0,.8609.99,5.5444,5.5444,0,0,1,4.7422,5.4742A5.4537,5.4537,0,0,1,54.4668,54.458Z" style="fill:#776d8a"/></g></svg>

